<?xml version="1.0" encoding="utf-8"?>
<!DOCTYPE svg PUBLIC "-//W3C//DTD SVG 1.1//EN" "http://www.w3.org/Graphics/SVG/1.1/DTD/svg11.dtd">
<svg xmlns="http://www.w3.org/2000/svg" xmlns:xlink="http://www.w3.org/1999/xlink" version="1.1" baseProfile="full" width="81.92" height="81.92" viewBox="0 0 81.92 81.92" enable-background="new 0 0 81.92 81.92" xml:space="preserve">
	<rect x="0" y="0" fill="#000000" fill-opacity="1" stroke-width="0.2" stroke-linejoin="round" stroke="#A15858" stroke-opacity="1" width="81.92" height="81.92"/>
	<path fill="#FF2D04" fill-opacity="1" stroke-width="0.2" stroke-linejoin="round" stroke="#A15858" stroke-opacity="1" d="M 12.5,24.5C 16,22 23,17 33.75,13.25C 44.5,9.5 59,7 66.25,6.75C 73.5,6.5 73.5,8.5 67.5,11C 61.5,13.5 49.5,16.5 42.25,21.5C 35,26.5 32.5,33.5 38.5,37C 44.5,40.5 59,40.5 66,37.5C 73,34.5 72.5,28.5 73.5,26.25C 74.5,24 77,25.5 77,31.75C 77,38 74.5,49 63,56.25C 51.5,63.5 31,67 31,69C 31,71 51.5,71.5 51.5,73C 51.5,74.5 31,77 19.75,75C 8.5,73 6.5,66.5 11,62C 15.5,57.5 26.5,55 33.25,52.75C 40,50.5 42.5,48.5 40,46.75C 37.5,45 30,43.5 26.75,39.25C 23.5,35 24.5,28 27,23.5C 29.5,19 33.5,17 34.25,16C 35,15 32.5,15 28.5,18.25C 24.5,21.5 19,28 17,33.25C 15,38.5 16.5,42.5 19,44.75C 21.5,47 25,47.5 24.25,48.5C 23.5,49.5 18.5,51 14.5,52.75C 10.5,54.5 7.5,56.5 7.25,55.5C 7,54.5 9.5,50.5 10.25,45.25C 11,40 10,33.5 9.5,30.25C 9,27 9,27 12.5,24.5 Z "/>
	<path fill="#FF2D04" fill-opacity="1" stroke-width="0.2" stroke-linejoin="round" stroke="#A15858" stroke-opacity="1" d="M 58,79.5C 62,79.5 70,79.5 74.5,72.5C 79,65.5 80,51.5 79,47.25C 78,43 75,48.5 71.25,52.75C 67.5,57 63,60 56.5,62.5C 50,65 41.5,67 41.5,68C 41.5,69 50,69 54.25,70C 58.5,71 58.5,73 55.4015,74.5C 52.303,76 46.106,77 45.356,77.75C 44.606,78.5 49.303,79 51.6515,79.25C 54,79.5 54,79.5 58,79.5 Z "/>
</svg>
